<?xml version="1.0" encoding="iso-8859-1"?>
<!-- Uploaded to: SVG Repo, www.svgrepo.com, Generator: SVG Repo Mixer Tools -->
<svg height="800px" width="800px" version="1.1" id="Layer_1" xmlns="http://www.w3.org/2000/svg" xmlns:xlink="http://www.w3.org/1999/xlink" 
	 viewBox="0 0 297.001 297.001" xml:space="preserve">
<g id="XMLID_47_">
	<g>
		<path style="fill:#FFE105;" d="M178.808,32.783l-20.694,20.694c-3.978,3.978-3.978,10.444,0,14.422
			c1.989,1.989,4.6,2.988,7.211,2.988s5.222-1,7.211-2.988l22.775-22.775c9.179,9.455,15.523,21.663,17.665,35.248H84.017
			c4.916-31.168,31.954-55.075,64.479-55.075C159.439,25.297,169.741,28.01,178.808,32.783z"/>
		<polygon style="fill:#FF2B19;" points="208.783,155.029 203.877,218.773 93.115,218.773 88.209,155.029 		"/>
		<polygon style="fill:#FC397C;" points="202.316,239.172 199.43,276.602 97.562,276.602 94.686,239.172 		"/>
		<polygon style="fill:#FC397C;" points="212.954,100.77 210.353,134.631 86.649,134.631 84.038,100.77 		"/>
		<path d="M199.43,276.602l2.886-37.431H94.686l2.876,37.431H199.43z M203.877,218.773l4.906-63.744H88.209l4.906,63.744H203.877z
			 M210.353,134.631l2.601-33.861H84.038l2.611,33.861H210.353z M158.114,53.477l20.694-20.694
			c-9.067-4.773-19.368-7.486-30.312-7.486c-32.525,0-59.563,23.907-64.479,55.075h128.957
			c-2.142-13.585-8.486-25.793-17.665-35.248l-22.775,22.775c-1.989,1.989-4.6,2.988-7.211,2.988s-5.222-1-7.211-2.988
			C154.135,63.921,154.135,57.454,158.114,53.477z M209.721,30.723c15.033,15.38,24.345,36.37,24.437,59.501
			c0.01,0.051,0.01,0.092,0.01,0.143c0,0.071-15.125,197.22-15.125,197.22c-0.408,5.314-4.834,9.414-10.168,9.414H88.117
			c-5.324,0-9.761-4.1-10.168-9.414c0,0-15.115-197.312-15.115-197.363c0.184-47.079,38.542-85.326,85.662-85.326
			c16.604,0,32.097,4.763,45.233,12.963l14.87-14.87c3.988-3.988,10.444-3.988,14.422,0c3.988,3.978,3.988,10.444,0,14.422
			L209.721,30.723z"/>
	</g>
</g>
</svg>